<mxfile host="app.diagrams.net" modified="2024-05-22T07:32:57.732Z" agent="Mozilla/5.0 (Windows NT 10.0; Win64; x64) AppleWebKit/537.36 (KHTML, like Gecko) Chrome/125.0.0.0 Safari/537.36" etag="YopK1VOT-A5gulFGMsJu" version="24.4.4" type="device">
  <diagram name="filter_data" id="f7GiF6fr4yC9Ut99wZ_-">
    <mxGraphModel dx="1207" dy="651" grid="1" gridSize="10" guides="1" tooltips="1" connect="1" arrows="1" fold="1" page="1" pageScale="1" pageWidth="827" pageHeight="1169" math="0" shadow="0">
      <root>
        <mxCell id="x-RIi2IKNC_MTWp0ffyV-0" />
        <mxCell id="x-RIi2IKNC_MTWp0ffyV-1" parent="x-RIi2IKNC_MTWp0ffyV-0" />
        <mxCell id="x-RIi2IKNC_MTWp0ffyV-2" value="Filter Data" style="text;strokeColor=none;align=center;fillColor=none;html=1;verticalAlign=middle;whiteSpace=wrap;rounded=0;fontStyle=1;fontSize=18;" vertex="1" parent="x-RIi2IKNC_MTWp0ffyV-1">
          <mxGeometry y="10" width="140" height="30" as="geometry" />
        </mxCell>
        <mxCell id="x-RIi2IKNC_MTWp0ffyV-3" style="edgeStyle=orthogonalEdgeStyle;rounded=0;orthogonalLoop=1;jettySize=auto;html=1;exitX=0.5;exitY=1;exitDx=0;exitDy=0;entryX=0.5;entryY=0;entryDx=0;entryDy=0;" edge="1" parent="x-RIi2IKNC_MTWp0ffyV-1" source="x-RIi2IKNC_MTWp0ffyV-4" target="x-RIi2IKNC_MTWp0ffyV-16">
          <mxGeometry relative="1" as="geometry" />
        </mxCell>
        <mxCell id="x-RIi2IKNC_MTWp0ffyV-4" value="&lt;font style=&quot;font-size: 12px;&quot;&gt;E&lt;/font&gt;" style="verticalLabelPosition=middle;verticalAlign=middle;html=1;shape=offPageConnector;rounded=0;size=0.6666666666666666;whiteSpace=wrap;textShadow=0;labelBorderColor=none;labelBackgroundColor=none;fontColor=default;labelPosition=center;align=center;" vertex="1" parent="x-RIi2IKNC_MTWp0ffyV-1">
          <mxGeometry x="384" y="60" width="60" height="60" as="geometry" />
        </mxCell>
        <mxCell id="x-RIi2IKNC_MTWp0ffyV-5" style="edgeStyle=orthogonalEdgeStyle;rounded=0;orthogonalLoop=1;jettySize=auto;html=1;exitX=0.5;exitY=1;exitDx=0;exitDy=0;entryX=0.5;entryY=0;entryDx=0;entryDy=0;" edge="1" parent="x-RIi2IKNC_MTWp0ffyV-1" source="x-RIi2IKNC_MTWp0ffyV-6" target="x-RIi2IKNC_MTWp0ffyV-8">
          <mxGeometry relative="1" as="geometry" />
        </mxCell>
        <mxCell id="x-RIi2IKNC_MTWp0ffyV-6" value="Data berhasil difilter" style="shape=parallelogram;html=1;strokeWidth=2;perimeter=parallelogramPerimeter;whiteSpace=wrap;rounded=1;arcSize=12;size=0.23;" vertex="1" parent="x-RIi2IKNC_MTWp0ffyV-1">
          <mxGeometry x="319" y="780" width="190" height="60" as="geometry" />
        </mxCell>
        <mxCell id="WLX0SqdglyK9exYgdV-S-5" style="edgeStyle=orthogonalEdgeStyle;rounded=0;orthogonalLoop=1;jettySize=auto;html=1;exitX=0;exitY=0.5;exitDx=0;exitDy=0;entryX=0;entryY=0.5;entryDx=0;entryDy=0;" edge="1" parent="x-RIi2IKNC_MTWp0ffyV-1" source="x-RIi2IKNC_MTWp0ffyV-8" target="x-RIi2IKNC_MTWp0ffyV-16">
          <mxGeometry relative="1" as="geometry">
            <Array as="points">
              <mxPoint x="180" y="980" />
              <mxPoint x="180" y="230" />
            </Array>
          </mxGeometry>
        </mxCell>
        <mxCell id="x-RIi2IKNC_MTWp0ffyV-8" value="Apakah lanjut?" style="rhombus;whiteSpace=wrap;html=1;" vertex="1" parent="x-RIi2IKNC_MTWp0ffyV-1">
          <mxGeometry x="355.32" y="920" width="117.37" height="120" as="geometry" />
        </mxCell>
        <mxCell id="x-RIi2IKNC_MTWp0ffyV-9" value="Selesai" style="strokeWidth=2;html=1;shape=mxgraph.flowchart.terminator;whiteSpace=wrap;" vertex="1" parent="x-RIi2IKNC_MTWp0ffyV-1">
          <mxGeometry x="364" y="1100" width="100" height="60" as="geometry" />
        </mxCell>
        <mxCell id="x-RIi2IKNC_MTWp0ffyV-10" style="edgeStyle=orthogonalEdgeStyle;rounded=0;orthogonalLoop=1;jettySize=auto;html=1;exitX=0.5;exitY=1;exitDx=0;exitDy=0;entryX=0.5;entryY=0;entryDx=0;entryDy=0;entryPerimeter=0;" edge="1" parent="x-RIi2IKNC_MTWp0ffyV-1" source="x-RIi2IKNC_MTWp0ffyV-8" target="x-RIi2IKNC_MTWp0ffyV-9">
          <mxGeometry relative="1" as="geometry" />
        </mxCell>
        <mxCell id="x-RIi2IKNC_MTWp0ffyV-11" value="Tidak" style="text;html=1;align=center;verticalAlign=middle;resizable=0;points=[];autosize=1;strokeColor=none;fillColor=none;" vertex="1" parent="x-RIi2IKNC_MTWp0ffyV-1">
          <mxGeometry x="412" y="1057" width="50" height="30" as="geometry" />
        </mxCell>
        <mxCell id="x-RIi2IKNC_MTWp0ffyV-13" style="edgeStyle=orthogonalEdgeStyle;rounded=0;orthogonalLoop=1;jettySize=auto;html=1;exitX=0.5;exitY=1;exitDx=0;exitDy=0;entryX=0.5;entryY=0;entryDx=0;entryDy=0;" edge="1" parent="x-RIi2IKNC_MTWp0ffyV-1" source="x-RIi2IKNC_MTWp0ffyV-14" target="x-RIi2IKNC_MTWp0ffyV-6">
          <mxGeometry relative="1" as="geometry" />
        </mxCell>
        <mxCell id="x-RIi2IKNC_MTWp0ffyV-14" value="Proses filter data" style="rounded=1;whiteSpace=wrap;html=1;" vertex="1" parent="x-RIi2IKNC_MTWp0ffyV-1">
          <mxGeometry x="341" y="600" width="146" height="80" as="geometry" />
        </mxCell>
        <mxCell id="WLX0SqdglyK9exYgdV-S-2" style="edgeStyle=orthogonalEdgeStyle;rounded=0;orthogonalLoop=1;jettySize=auto;html=1;exitX=0.5;exitY=1;exitDx=0;exitDy=0;entryX=0.5;entryY=0;entryDx=0;entryDy=0;" edge="1" parent="x-RIi2IKNC_MTWp0ffyV-1" source="x-RIi2IKNC_MTWp0ffyV-16" target="WLX0SqdglyK9exYgdV-S-0">
          <mxGeometry relative="1" as="geometry" />
        </mxCell>
        <mxCell id="x-RIi2IKNC_MTWp0ffyV-16" value="Masukkan nama kolom&amp;nbsp;&lt;div&gt;yang difilter&lt;/div&gt;" style="shape=parallelogram;html=1;strokeWidth=2;perimeter=parallelogramPerimeter;whiteSpace=wrap;rounded=1;arcSize=12;size=0.17250000000000001;" vertex="1" parent="x-RIi2IKNC_MTWp0ffyV-1">
          <mxGeometry x="314" y="200" width="200" height="60" as="geometry" />
        </mxCell>
        <mxCell id="x-RIi2IKNC_MTWp0ffyV-24" value="Ya" style="text;html=1;align=center;verticalAlign=middle;resizable=0;points=[];autosize=1;strokeColor=none;fillColor=none;" vertex="1" parent="x-RIi2IKNC_MTWp0ffyV-1">
          <mxGeometry x="260" y="950" width="40" height="30" as="geometry" />
        </mxCell>
        <mxCell id="WLX0SqdglyK9exYgdV-S-3" style="edgeStyle=orthogonalEdgeStyle;rounded=0;orthogonalLoop=1;jettySize=auto;html=1;exitX=0.5;exitY=1;exitDx=0;exitDy=0;entryX=0.5;entryY=0;entryDx=0;entryDy=0;" edge="1" parent="x-RIi2IKNC_MTWp0ffyV-1" source="WLX0SqdglyK9exYgdV-S-0" target="x-RIi2IKNC_MTWp0ffyV-14">
          <mxGeometry relative="1" as="geometry" />
        </mxCell>
        <mxCell id="WLX0SqdglyK9exYgdV-S-0" value="Masukkan data kolom&amp;nbsp;&lt;div&gt;yang difilter&lt;/div&gt;" style="shape=parallelogram;html=1;strokeWidth=2;perimeter=parallelogramPerimeter;whiteSpace=wrap;rounded=1;arcSize=12;size=0.17250000000000001;" vertex="1" parent="x-RIi2IKNC_MTWp0ffyV-1">
          <mxGeometry x="314" y="410" width="200" height="60" as="geometry" />
        </mxCell>
      </root>
    </mxGraphModel>
  </diagram>
</mxfile>
